<svg id="Layer_1" data-name="Layer 1" xmlns="http://www.w3.org/2000/svg" viewBox="0 0 1000 500"><defs><style>.cls-1{fill:#fff;}.cls-2{fill:#e21e2c;}.cls-3{fill:#0071bc;}</style></defs><title>Prosvejdi logo</title><rect class="cls-1" width="1000" height="500"/><path class="cls-2" d="M383.32,231.1a12.2,12.2,0,0,0-2.78-4.93,7.15,7.15,0,0,0-5.5-2,7.56,7.56,0,0,0-5.73,2,11.09,11.09,0,0,0-2.73,4.83,23.12,23.12,0,0,0-.83,5.83c0,2-.05,3.7-.05,5.07v19.55c0,1.44.08,3.05.23,4.84a19.33,19.33,0,0,0,1.11,5,9,9,0,0,0,2.78,3.9,8,8,0,0,0,5.22,1.55,8.06,8.06,0,0,0,5.32-1.59,9.7,9.7,0,0,0,2.82-4.09,17.91,17.91,0,0,0,1.06-5.36c.09-1.91.14-3.71.14-5.4v-18c0-1.38,0-3.1-.09-5.17A23.23,23.23,0,0,0,383.32,231.1Z" transform="translate(0 -0.45)"/><path class="cls-2" d="M629.07,230.91a8.37,8.37,0,0,0-2.91-4.09,8.23,8.23,0,0,0-4.72-1.26h-8.51v49.79h5.64a15.1,15.1,0,0,0,6.8-1.26,8.09,8.09,0,0,0,3.7-4.37,26.26,26.26,0,0,0,1.52-8.23q.28-5.12.28-12.73,0-6.19-.37-10.61A27.43,27.43,0,0,0,629.07,230.91Z" transform="translate(0 -0.45)"/><path class="cls-2" d="M324.79,227.29a5.85,5.85,0,0,0-2.54-1.36,13.63,13.63,0,0,0-3.33-.37H309.3V245h10.18a7.79,7.79,0,0,0,5.36-2.53c1.48-1.57,2.22-4.1,2.22-7.61a15.61,15.61,0,0,0-.6-4.75A6.65,6.65,0,0,0,324.79,227.29Z" transform="translate(0 -0.45)"/><path class="cls-2" d="M272,227.2a7.21,7.21,0,0,0-3.23-1.32,28.9,28.9,0,0,0-4.72-.32h-5.92v20.29H265a10,10,0,0,0,6.84-2.3c1.72-1.54,2.59-4.43,2.59-8.69a15.93,15.93,0,0,0-.6-4.84A5.67,5.67,0,0,0,272,227.2Z" transform="translate(0 -0.45)"/><path class="cls-2" d="M245,164.74a45,45,0,0,0-45,45V336.17H714.29V164.74Zm42.45,75.1a25.73,25.73,0,0,1-1.06,4.55,18.38,18.38,0,0,1-2,4.14,14.8,14.8,0,0,1-3.1,3.43,17.43,17.43,0,0,1-6.89,3.38,28.91,28.91,0,0,1-7.63.85h-8.69v29.5H245.14V215.22h26.44A15.58,15.58,0,0,1,279.3,217a14.4,14.4,0,0,1,5,4.55A18.46,18.46,0,0,1,287,228a34,34,0,0,1,.46,11.89Zm55.24,45.85H328.44a21.35,21.35,0,0,1-.83-4c-.18-1.57-.32-3.18-.42-4.84s-.13-3.27-.13-4.84v-4.13c0-1.07,0-2.21-.1-3.43a18.35,18.35,0,0,0-.5-3.48,8.86,8.86,0,0,0-1.3-2.91,4.41,4.41,0,0,0-2.54-1.74,23.53,23.53,0,0,0-5.46-.85c-1.85-.06-3.69-.09-5.54-.09H309.3v30.35H296.36V215.22h24.5a36.06,36.06,0,0,1,7.77.8,16,16,0,0,1,6.24,2.77A13.64,13.64,0,0,1,339,224a19.09,19.09,0,0,1,1.53,8.13,35.16,35.16,0,0,1-.47,5.73,18.07,18.07,0,0,1-1.62,5.17,11.35,11.35,0,0,1-3.23,4,10.89,10.89,0,0,1-5.32,2.12v.19q5.73.75,7.86,4.23a16,16,0,0,1,2.13,8.55v2.53c0,1.19,0,2.56,0,4.09s.1,3.15.19,4.84.23,3.27.42,4.74a23.14,23.14,0,0,0,.78,3.9,3.54,3.54,0,0,0,1.34,2.16Zm55-30.82q0,7-.55,13a27.48,27.48,0,0,1-2.82,10.29,16.09,16.09,0,0,1-6.8,6.77Q383,287.39,375,287.38t-12.48-2.44a16.09,16.09,0,0,1-6.8-6.77,27.48,27.48,0,0,1-2.82-10.29q-.56-6-.55-13V244.82q.18-6.76.83-12.5a27,27,0,0,1,2.91-9.91,15.79,15.79,0,0,1,6.71-6.53q4.44-2.35,12.2-2.35t12.21,2.35a15.82,15.82,0,0,1,6.7,6.53,27,27,0,0,1,2.91,9.91q.64,5.73.83,12.5Zm50.95,21a17.21,17.21,0,0,1-4.39,6.34,19.19,19.19,0,0,1-6.75,3.86,27.34,27.34,0,0,1-8.65,1.31,26.71,26.71,0,0,1-9.85-1.6,16.69,16.69,0,0,1-6.51-4.41,16.93,16.93,0,0,1-3.61-6.77,31.82,31.82,0,0,1-1.11-8.64v-5.17h13v4.13a16.81,16.81,0,0,0,1.57,8.51q1.75,3.33,6.56,3.33,8,0,8-8.27a10,10,0,0,0-1.34-5.3,13.75,13.75,0,0,0-3.83-4c-1.67-1.31-3.42-2.58-5.27-3.8s-3.69-2.46-5.5-3.71-3.56-2.59-5.23-4a28.49,28.49,0,0,1-4.44-4.74A19.12,19.12,0,0,1,408,232.13q0-9.1,5-13.86t15.35-4.74a26.38,26.38,0,0,1,8.64,1.22,16.84,16.84,0,0,1,5.73,3.24,13.88,13.88,0,0,1,3.42,4.51,22.23,22.23,0,0,1,1.67,5.08,31.85,31.85,0,0,1,.6,5q.09,2.38.09,4.08H436c0-1.56-.06-3.1-.18-4.6a13.13,13.13,0,0,0-.93-4,6.55,6.55,0,0,0-2.26-2.81,7.19,7.19,0,0,0-4.21-1.08,8.26,8.26,0,0,0-5.18,1.5q-1.93,1.5-1.94,5.07a9,9,0,0,0,.6,3.43,9.54,9.54,0,0,0,1.57,2.59,14.32,14.32,0,0,0,2.31,2.11c.9.66,1.87,1.3,2.92,1.93s2.29,1.5,3.74,2.44,2.91,1.94,4.39,3,2.88,2.13,4.21,3.19,2.45,2,3.37,2.91a18.61,18.61,0,0,1,4.58,6.72,23.57,23.57,0,0,1,1.25,8A23,23,0,0,1,448.64,275.87Zm40.59,9.82H471.94l-15.35-70.47h13.87l8.13,45.19c.37,2,.68,4,.93,6s.46,4,.65,6c.12.94.24,1.9.36,2.87a22.3,22.3,0,0,1,.19,3h.19a24.13,24.13,0,0,1,.18-3c.12-1,.24-1.93.37-2.87.18-2,.4-4,.65-6s.55-4,.92-6l7.31-45.19H504.2Zm52.33-19.07v3.94a28,28,0,0,1-.33,4.23,19.69,19.69,0,0,1-1.11,4.23,11.53,11.53,0,0,1-2.35,3.76,12.35,12.35,0,0,1-7,3.85,49.34,49.34,0,0,1-8.83.75,17.65,17.65,0,0,1-7.08-1.55,14.53,14.53,0,0,1-6.24-5.68,10.09,10.09,0,0,1-1-2.78,34.55,34.55,0,0,1-.65-4.13c-.15-1.53-.26-3.16-.32-4.89a46.3,46.3,0,0,1,.09-5h12.95v8.73a7.07,7.07,0,0,0,.92,3.29c.56.94,1.63,1.41,3.24,1.41a4.86,4.86,0,0,0,2.68-.61,3.78,3.78,0,0,0,1.39-1.64,7.17,7.17,0,0,0,.55-2.4c.06-.91.09-1.83.09-2.77V215.22h12.95Zm47.89-41.06H566v17.75H587.6v10.34H566v21.7h23.49v10.34H553V215.22h36.43ZM644,258.21a64.26,64.26,0,0,1-1.16,10.33,30.86,30.86,0,0,1-3.14,8.93,16.29,16.29,0,0,1-6.15,6.34,11.06,11.06,0,0,1-4.67,1.6,44.23,44.23,0,0,1-4.94.28H600V215.22h27a15.13,15.13,0,0,1,6.38,1.55,18.23,18.23,0,0,1,3.69,2.44,15.72,15.72,0,0,1,3.33,4,24.81,24.81,0,0,1,3,9.58,116,116,0,0,1,.78,14.75C644.18,251.05,644.12,254.6,644,258.21Zm25.15,27.48H656.2V215.22h12.95Z" transform="translate(0 -0.45)"/><path class="cls-3" d="M714.29,164.74V336.17h41.16A44.56,44.56,0,0,0,800,291.62V164.74Zm56.36,121.67H765.9v-4.75h4.75Zm-.28-14.52a6.22,6.22,0,0,1-2.6,2.65,10.28,10.28,0,0,1-3.94,1.1c-1.53.14-3.19.22-5,.22H755c-1.73-.05-3.33-.16-4.79-.33a10.21,10.21,0,0,1-3.8-1.13,6.12,6.12,0,0,1-2.51-2.62,13,13,0,0,1,0-9.51,6.15,6.15,0,0,1,2.51-2.61,10.22,10.22,0,0,1,3.8-1.14c1.46-.16,3.06-.27,4.79-.32h3.86c1.8,0,3.46.07,5,.22a10.28,10.28,0,0,1,3.94,1.1,6.25,6.25,0,0,1,2.6,2.64,13.19,13.19,0,0,1,0,9.73Zm.28-23.27v5h-27v-9.55a13.73,13.73,0,0,1,.31-3,6.25,6.25,0,0,1,1.06-2.43,5.2,5.2,0,0,1,2-1.63,7.33,7.33,0,0,1,3.12-.59,13.3,13.3,0,0,1,2.19.18,6.92,6.92,0,0,1,2,.63,4.43,4.43,0,0,1,1.53,1.26,4.3,4.3,0,0,1,.81,2.07h.07a3.93,3.93,0,0,1,1.62-3.06,6.12,6.12,0,0,1,3.28-.83h1c.46,0,1,0,1.57,0s1.21,0,1.86-.07,1.25-.09,1.82-.16a9,9,0,0,0,1.49-.31,1.34,1.34,0,0,0,.83-.52h.5v5.55a7.93,7.93,0,0,1-1.55.32c-.59.08-1.21.13-1.85.17s-1.26,0-1.86,0h-1.58c-.41,0-.85,0-1.32,0a7,7,0,0,0-1.33.19,3.47,3.47,0,0,0-1.12.51,1.75,1.75,0,0,0-.66,1,9,9,0,0,0-.33,2.12c0,.73,0,1.45,0,2.17v.9Zm-.28-20.54a6.22,6.22,0,0,1-2.6,2.65,10.46,10.46,0,0,1-3.94,1.1c-1.53.14-3.19.21-5,.21H755c-1.73,0-3.33-.15-4.79-.32a10.22,10.22,0,0,1-3.8-1.14,6.09,6.09,0,0,1-2.51-2.61,10.4,10.4,0,0,1-.9-4.75,15.56,15.56,0,0,1,.27-3,7.44,7.44,0,0,1,.92-2.43,6.06,6.06,0,0,1,1.77-1.84,8.73,8.73,0,0,1,2.88-1.2,8.45,8.45,0,0,1,1.64-.2l1.64-.05v5c-.67,0-1.31.07-1.91.13a4.34,4.34,0,0,0-1.59.45,2.67,2.67,0,0,0-1.08,1.08,4.88,4.88,0,0,0-.47,2,3,3,0,0,0,.78,2.23,4.28,4.28,0,0,0,1.85,1.06,8.79,8.79,0,0,0,2.24.33h9.44c.55,0,1.17,0,1.85-.09a7.06,7.06,0,0,0,1.93-.43,3.53,3.53,0,0,0,1.5-1.08,3.19,3.19,0,0,0,.59-2,3,3,0,0,0-.54-1.82,3.68,3.68,0,0,0-1.49-1.18,8.26,8.26,0,0,0-2.27-.59,19.7,19.7,0,0,0-2.83-.13V223h-4v-8.4h14.52v3.79h-3.1v.07a7,7,0,0,1,1.75.92,5,5,0,0,1,1.14,1.15,4.44,4.44,0,0,1,.63,1.32,5.86,5.86,0,0,1,.23,1.37A10.55,10.55,0,0,1,770.37,228.08Z" transform="translate(0 -0.45)"/><path class="cls-3" d="M765.05,263.86a6.86,6.86,0,0,0-2-.42c-.73,0-1.43-.05-2.07-.05H754c-.53,0-1.19,0-2,0a8.92,8.92,0,0,0-2.31.37,4.68,4.68,0,0,0-1.89,1.09,2.8,2.8,0,0,0-.78,2.14,3,3,0,0,0,.78,2.23,4.3,4.3,0,0,0,1.85,1.07,8.78,8.78,0,0,0,2.24.32l1.94,0h7.5c.55,0,1.17,0,1.85-.09a7.45,7.45,0,0,0,1.93-.43,3.47,3.47,0,0,0,1.5-1.09,3.19,3.19,0,0,0,.59-2,3.14,3.14,0,0,0-.61-2.07A3.7,3.7,0,0,0,765.05,263.86Z" transform="translate(0 -0.45)"/><path class="cls-3" d="M751.16,241.7a6.11,6.11,0,0,0-1.82.23,2.57,2.57,0,0,0-1.08.65,2.25,2.25,0,0,0-.52,1,5.22,5.22,0,0,0-.15,1.3v3.75h7.46v-4a3,3,0,0,0-1-2.09A4.14,4.14,0,0,0,751.16,241.7Z" transform="translate(0 -0.45)"/></svg>